# xmcd
#
# Track frame offsets: 
#        150
#        16723
#        34370
#        41163
#        49224
#        63660
#        80209
#        97823
#        110245
#        137116
#        160555
#        179613
#        195664
#        204152
#        221825
#        242073
#        270840
#        278551
#        293366
#        304152
#        318704
#        333183
#
# Disc length: 4776 seconds
#
# Revision: 0
# Processed by: cddbd v1.5.1PL0 Copyright (c) Steve Scherf et al.
# Submitted via: ExactAudioCopy v0.95a3
#
DISCID=4112a616
DTITLE=King, BB - Live - 19880612 - Chicago, IL
DYEAR=1988
DGENRE=Blues
TTITLE0='BB King's Blues Band - 01'
TTITLE1='BB King's Blues Band - 02'
TTITLE2='BB King's Blues Band - 03'
TTITLE3='Intro'
TTITLE4=Let The Good Times Roll
TTITLE5='Instrumental - 01'
TTITLE6=Home All Alone
TTITLE7=Payin' The Cost To Be The Boss
TTITLE8=Take Off Your Shoes
TTITLE9=Never Make A Move Too Soon
TTITLE10=Catfish Blues
TTITLE11=Nobody Loves Me But My Mother
TTITLE12=How Blue Can You Get
TTITLE13=Thrill Is Gone
TTITLE14='Band Intros'
TTITLE15=Rock Me Baby
TTITLE16='Instrumental' - 02'
TTITLE17=Let The Good Times Roll *
TTITLE18=Home All Alone *
TTITLE19=Sweet Sixteen *
TTITLE20=Caldonia *
TTITLE21=Why I Sing The Blues *
EXTD=Recorded live at Chicago Blues Festival - Chicago, IL on June 12,
EXTD=1988.\nLikely FM Radio broadcast (WXRT - 93.1FM?]\n\n* Tracks 18
EXTD=22 =recorded live at Jazz and Heritage Festival - New Orleans - L
EXTD=A on April 23, 1988.
EXTT0=
EXTT1=
EXTT2=
EXTT3=
EXTT4=
EXTT5=
EXTT6=
EXTT7=
EXTT8=
EXTT9=
EXTT10=
EXTT11=
EXTT12=
EXTT13=
EXTT14=
EXTT15=
EXTT16=
EXTT17=
EXTT18=
EXTT19=
EXTT20=
EXTT21=
PLAYORDER=
